<svg xmlns="http://www.w3.org/2000/svg" xmlns:xlink="http://www.w3.org/1999/xlink" width="410" height="404" viewBox="0 0 410 404" fill="none">
  <path d="M399.641 59.5243C406.142 70.8457 410 83.9691 410 98.0047C410 165.293 336.332 219.967 245.458 219.967C154.584 219.967 80.9158 165.293 80.9158 98.0047C80.9158 30.7167 154.584 -23.9573 245.458 -23.9573C276.22 -23.9573 305.259 -17.4688 330.446 -6.04654L333.57 1.5678C331.496 2.49487 329.464 3.46429 327.469 4.47393C299.851 -9.87383 269.515 -17.9561 237.534 -17.9561C150.393 -17.9561 79.7684 32.3802 79.7684 98.0047C79.7684 163.629 150.393 213.966 237.534 213.966C324.675 213.966 395.3 163.629 395.3 98.0047C395.3 85.8933 392.733 74.1955 387.927 63.2485L399.641 59.5243Z" fill="#646CFF"/>
  <path d="M230.193 10.4824C225.659 -4.8501 218.73 -18.7402 209.956 -30.9769C201.22 -43.1618 190.643 -53.7061 178.88 -62.084C167.111 -70.4669 154.078 -76.6737 140.521 -80.4672C126.965 -84.2608 113.152 -85.5804 99.2601 -84.3562C85.3681 -83.132 71.6518 -79.3862 59.2105 -73.3337C46.7691 -67.2813 35.8836 -59.0322 27.1409 -48.9493C18.3981 -38.8664 11.9506 -27.149 8.08923 -14.4783C4.22789 -1.80754 2.99255 11.5736 4.47078 24.7457C5.94899 37.9179 10.1076 50.6281 16.7025 62.1351C23.2974 73.6421 32.1652 83.7247 42.7691 91.785C53.373 99.8453 65.4876 105.713 78.415 109.033C91.3425 112.353 104.837 113.059 118.04 111.106C131.243 109.154 143.882 104.587 155.171 97.6807C166.459 90.7744 176.167 81.6507 183.686 70.9166L230.193 10.4824Z" fill="#00BCE8"/>
  <path d="M247.874 86.4412C245.945 77.5088 242.452 68.9603 237.526 61.2362C232.6 53.5122 226.319 46.7672 219.031 41.3219C211.744 35.8765 203.601 31.8347 195.001 29.4115C186.401 26.9884 177.478 26.2308 168.585 27.1884C159.692 28.146 150.97 30.8006 142.882 34.9993C134.794 39.1981 127.456 44.8728 121.19 51.756C114.924 58.6392 109.86 66.6104 106.226 75.3362C102.592 84.062 100.451 93.3774 99.9043 102.843C99.3579 112.308 100.419 121.804 103.047 130.867C105.675 139.93 109.835 148.428 115.33 156.027C120.825 163.626 127.556 170.184 135.171 175.373C142.786 180.563 151.16 184.286 159.924 186.388C168.688 188.49 177.685 188.936 186.602 187.702C195.518 186.468 204.201 183.579 212.332 179.197C220.464 174.815 227.898 169.015 234.256 162.019L247.874 86.4412Z" fill="#00BCE8"/>
  <path d="M342.897 160.146C346.35 146.981 348.208 133.409 348.417 119.762C348.626 106.116 347.185 92.4375 344.165 79.2032C341.144 65.9689 336.58 53.3854 330.6 41.7282C324.62 30.0711 317.3 19.4883 308.819 10.2551C300.338 1.02196 290.83 -6.80822 280.518 -13.0996C270.207 -19.3909 259.224 -24.046 247.874 -26.8875C236.524 -29.729 224.946 -30.7073 213.416 -29.7948C201.885 -28.8824 190.468 -26.0909 179.409 -21.4959C168.349 -16.9008 157.827 -10.5788 148.086 -2.58744C138.345 5.40388 129.481 14.96 121.683 25.8893C113.885 36.8186 107.283 48.9631 102.084 61.9741C96.8851 74.985 93.1357 88.6893 91.0067 102.763C88.8777 116.837 88.4097 131.054 89.6247 145.222C90.8398 159.391 93.722 173.366 98.1919 186.829C102.662 200.291 108.673 213.041 116.082 224.756C123.49 236.471 132.181 246.93 141.899 255.805C151.616 264.679 162.219 271.872 173.393 277.155C184.567 282.438 196.214 285.727 208.04 286.918C219.866 288.108 231.781 287.173 243.35 284.148C254.92 281.123 265.999 276.047 276.241 269.077C286.482 262.107 295.723 253.341 303.537 243.034C311.351 232.727 317.657 221.039 322.257 208.59C326.857 196.14 329.688 183.107 330.664 169.891L342.897 160.146Z" fill="#646CFF"/>
</svg>
